<?xml version="1.0" encoding="UTF-8" standalone="no"?>
<!DOCTYPE svg PUBLIC "-//W3C//DTD SVG 1.1//EN"
 "http://www.w3.org/Graphics/SVG/1.1/DTD/svg11.dtd">
<!-- Generated by graphviz version 12.1.0 (20240811.2233)
 -->
<!-- Title: rc&#45;graph Pages: 1 -->
<svg width="108pt" height="665pt"
 viewBox="0.00 0.00 108.20 664.50" xmlns="http://www.w3.org/2000/svg" xmlns:xlink="http://www.w3.org/1999/xlink">
<g id="graph0" class="graph" transform="scale(1 1) rotate(0) translate(4 660.5)">
<title>rc&#45;graph</title>
<polygon fill="white" stroke="none" points="-4,4 -4,-660.5 104.2,-660.5 104.2,4 -4,4"/>
<!-- 2329768896944 -->
<g id="node1" class="node">
<title>2329768896944</title>
<polygon fill="lightblue" stroke="none" points="91.75,-567 0,-567 0,-531 91.75,-531 91.75,-567"/>
<polygon fill="none" stroke="black" points="11,-538.12 11,-559.88 80.75,-559.88 80.75,-538.12 11,-538.12"/>
<text text-anchor="start" x="14" y="-543.58" font-family="Arial" font-size="14.00">factorial(6)</text>
<polygon fill="none" stroke="black" points="8,-535.12 8,-562.88 83.75,-562.88 83.75,-535.12 8,-535.12"/>
</g>
<!-- 2329770230096 -->
<g id="node2" class="node">
<title>2329770230096</title>
<polygon fill="lightblue" stroke="none" points="91.75,-478.5 0,-478.5 0,-442.5 91.75,-442.5 91.75,-478.5"/>
<polygon fill="none" stroke="black" points="11,-449.62 11,-471.38 80.75,-471.38 80.75,-449.62 11,-449.62"/>
<text text-anchor="start" x="14" y="-455.07" font-family="Arial" font-size="14.00">factorial(5)</text>
<polygon fill="none" stroke="black" points="8,-446.62 8,-474.38 83.75,-474.38 83.75,-446.62 8,-446.62"/>
</g>
<!-- 2329768896944&#45;&gt;2329770230096 -->
<g id="edge1" class="edge">
<title>2329768896944&#45;&gt;2329770230096</title>
<path fill="none" stroke="red" stroke-dasharray="5,2" d="M32.91,-531.09C29.44,-525.61 26.16,-519.31 24.38,-513 22.38,-505.94 22.38,-503.56 24.38,-496.5 25.18,-493.64 26.3,-490.78 27.6,-488"/>
<polygon fill="red" stroke="red" points="32.32,-479.48 31.41,-490.41 30.48,-482.79 27.47,-488.23 27.47,-488.23 27.47,-488.23 30.48,-482.79 23.54,-486.05 32.32,-479.48"/>
<text text-anchor="middle" x="35.62" y="-499.7" font-family="Times New Roman,serif" font-size="14.00">(#1)</text>
</g>
<!-- 2329768896944&#45;&gt;2329770230096 -->
<g id="edge7" class="edge">
<title>2329768896944&#45;&gt;2329770230096:c</title>
<path fill="none" stroke="green" stroke-dasharray="5,2" d="M46.75,-519.87C46.8,-517.55 46.84,-515.23 46.88,-513 46.98,-505.67 46.98,-503.83 46.88,-496.5 46.79,-490.54 46.62,-484.02 46.45,-478.23"/>
<polygon fill="green" stroke="green" points="43.25,-519.67 46.49,-529.75 50.25,-519.85 43.25,-519.67"/>
<text text-anchor="middle" x="73.58" y="-499.7" font-family="Times New Roman,serif" font-size="14.00">120 (#12)</text>
</g>
<!-- 2329770236624 -->
<g id="node3" class="node">
<title>2329770236624</title>
<polygon fill="lightblue" stroke="none" points="91.75,-390 0,-390 0,-354 91.75,-354 91.75,-390"/>
<polygon fill="none" stroke="black" points="11,-361.12 11,-382.88 80.75,-382.88 80.75,-361.12 11,-361.12"/>
<text text-anchor="start" x="14" y="-366.57" font-family="Arial" font-size="14.00">factorial(4)</text>
<polygon fill="none" stroke="black" points="8,-358.12 8,-385.88 83.75,-385.88 83.75,-358.12 8,-358.12"/>
</g>
<!-- 2329770230096&#45;&gt;2329770236624 -->
<g id="edge2" class="edge">
<title>2329770230096&#45;&gt;2329770236624</title>
<path fill="none" stroke="red" stroke-dasharray="5,2" d="M32.91,-442.59C29.44,-437.11 26.16,-430.81 24.38,-424.5 22.38,-417.44 22.38,-415.06 24.38,-408 25.18,-405.14 26.3,-402.28 27.6,-399.5"/>
<polygon fill="red" stroke="red" points="32.32,-390.98 31.41,-401.91 30.48,-394.29 27.47,-399.73 27.47,-399.73 27.47,-399.73 30.48,-394.29 23.54,-397.55 32.32,-390.98"/>
<text text-anchor="middle" x="35.62" y="-411.2" font-family="Times New Roman,serif" font-size="14.00">(#2)</text>
</g>
<!-- 2329770230096&#45;&gt;2329770236624 -->
<g id="edge9" class="edge">
<title>2329770230096&#45;&gt;2329770236624:c</title>
<path fill="none" stroke="green" stroke-dasharray="5,2" d="M46.75,-431.37C46.8,-429.05 46.84,-426.73 46.88,-424.5 46.98,-417.17 46.98,-415.33 46.88,-408 46.79,-402.04 46.62,-395.52 46.45,-389.73"/>
<polygon fill="green" stroke="green" points="43.25,-431.17 46.49,-441.25 50.25,-431.35 43.25,-431.17"/>
<text text-anchor="middle" x="70.2" y="-411.2" font-family="Times New Roman,serif" font-size="14.00">24 (#11)</text>
</g>
<!-- 2329770243696 -->
<g id="node4" class="node">
<title>2329770243696</title>
<polygon fill="lightblue" stroke="none" points="91.75,-301.5 0,-301.5 0,-265.5 91.75,-265.5 91.75,-301.5"/>
<polygon fill="none" stroke="black" points="11,-272.62 11,-294.38 80.75,-294.38 80.75,-272.62 11,-272.62"/>
<text text-anchor="start" x="14" y="-278.07" font-family="Arial" font-size="14.00">factorial(3)</text>
<polygon fill="none" stroke="black" points="8,-269.62 8,-297.38 83.75,-297.38 83.75,-269.62 8,-269.62"/>
</g>
<!-- 2329770236624&#45;&gt;2329770243696 -->
<g id="edge3" class="edge">
<title>2329770236624&#45;&gt;2329770243696</title>
<path fill="none" stroke="red" stroke-dasharray="5,2" d="M32.91,-354.09C29.44,-348.61 26.16,-342.31 24.38,-336 22.38,-328.94 22.38,-326.56 24.38,-319.5 25.18,-316.64 26.3,-313.78 27.6,-311"/>
<polygon fill="red" stroke="red" points="32.32,-302.48 31.41,-313.41 30.48,-305.79 27.47,-311.23 27.47,-311.23 27.47,-311.23 30.48,-305.79 23.54,-309.05 32.32,-302.48"/>
<text text-anchor="middle" x="35.62" y="-322.7" font-family="Times New Roman,serif" font-size="14.00">(#3)</text>
</g>
<!-- 2329770236624&#45;&gt;2329770243696 -->
<g id="edge10" class="edge">
<title>2329770236624&#45;&gt;2329770243696:c</title>
<path fill="none" stroke="green" stroke-dasharray="5,2" d="M46.75,-342.87C46.8,-340.55 46.84,-338.23 46.88,-336 46.98,-328.67 46.98,-326.83 46.88,-319.5 46.79,-313.54 46.62,-307.02 46.45,-301.23"/>
<polygon fill="green" stroke="green" points="43.25,-342.67 46.49,-352.75 50.25,-342.85 43.25,-342.67"/>
<text text-anchor="middle" x="66.83" y="-322.7" font-family="Times New Roman,serif" font-size="14.00">6 (#10)</text>
</g>
<!-- 2329770267760 -->
<g id="node5" class="node">
<title>2329770267760</title>
<polygon fill="lightblue" stroke="none" points="91.75,-213 0,-213 0,-177 91.75,-177 91.75,-213"/>
<polygon fill="none" stroke="black" points="11,-184.12 11,-205.88 80.75,-205.88 80.75,-184.12 11,-184.12"/>
<text text-anchor="start" x="14" y="-189.57" font-family="Arial" font-size="14.00">factorial(2)</text>
<polygon fill="none" stroke="black" points="8,-181.12 8,-208.88 83.75,-208.88 83.75,-181.12 8,-181.12"/>
</g>
<!-- 2329770243696&#45;&gt;2329770267760 -->
<g id="edge4" class="edge">
<title>2329770243696&#45;&gt;2329770267760</title>
<path fill="none" stroke="red" stroke-dasharray="5,2" d="M32.91,-265.59C29.44,-260.11 26.16,-253.81 24.38,-247.5 22.38,-240.44 22.38,-238.06 24.38,-231 25.18,-228.14 26.3,-225.28 27.6,-222.5"/>
<polygon fill="red" stroke="red" points="32.32,-213.98 31.41,-224.91 30.48,-217.29 27.47,-222.73 27.47,-222.73 27.47,-222.73 30.48,-217.29 23.54,-220.55 32.32,-213.98"/>
<text text-anchor="middle" x="35.62" y="-234.2" font-family="Times New Roman,serif" font-size="14.00">(#4)</text>
</g>
<!-- 2329770243696&#45;&gt;2329770267760 -->
<g id="edge11" class="edge">
<title>2329770243696&#45;&gt;2329770267760:c</title>
<path fill="none" stroke="green" stroke-dasharray="5,2" d="M46.75,-254.37C46.8,-252.05 46.84,-249.73 46.88,-247.5 46.98,-240.17 46.98,-238.33 46.88,-231 46.79,-225.04 46.62,-218.52 46.45,-212.73"/>
<polygon fill="green" stroke="green" points="43.25,-254.17 46.49,-264.25 50.25,-254.35 43.25,-254.17"/>
<text text-anchor="middle" x="63.45" y="-234.2" font-family="Times New Roman,serif" font-size="14.00">2 (#9)</text>
</g>
<!-- 2329770275920 -->
<g id="node6" class="node">
<title>2329770275920</title>
<polygon fill="lightblue" stroke="none" points="91.75,-124.5 0,-124.5 0,-88.5 91.75,-88.5 91.75,-124.5"/>
<polygon fill="none" stroke="black" points="11,-95.62 11,-117.38 80.75,-117.38 80.75,-95.62 11,-95.62"/>
<text text-anchor="start" x="14" y="-101.08" font-family="Arial" font-size="14.00">factorial(1)</text>
<polygon fill="none" stroke="black" points="8,-92.62 8,-120.38 83.75,-120.38 83.75,-92.62 8,-92.62"/>
</g>
<!-- 2329770267760&#45;&gt;2329770275920 -->
<g id="edge5" class="edge">
<title>2329770267760&#45;&gt;2329770275920</title>
<path fill="none" stroke="red" stroke-dasharray="5,2" d="M32.91,-177.09C29.44,-171.61 26.16,-165.31 24.38,-159 22.38,-151.94 22.38,-149.56 24.38,-142.5 25.18,-139.64 26.3,-136.78 27.6,-134"/>
<polygon fill="red" stroke="red" points="32.32,-125.48 31.41,-136.41 30.48,-128.79 27.47,-134.23 27.47,-134.23 27.47,-134.23 30.48,-128.79 23.54,-132.05 32.32,-125.48"/>
<text text-anchor="middle" x="35.62" y="-145.7" font-family="Times New Roman,serif" font-size="14.00">(#5)</text>
</g>
<!-- 2329770267760&#45;&gt;2329770275920 -->
<g id="edge12" class="edge">
<title>2329770267760&#45;&gt;2329770275920:c</title>
<path fill="none" stroke="green" stroke-dasharray="5,2" d="M46.75,-165.87C46.8,-163.55 46.84,-161.23 46.88,-159 46.98,-151.67 46.98,-149.83 46.88,-142.5 46.79,-136.54 46.62,-130.02 46.45,-124.23"/>
<polygon fill="green" stroke="green" points="43.25,-165.67 46.49,-175.75 50.25,-165.85 43.25,-165.67"/>
<text text-anchor="middle" x="63.45" y="-145.7" font-family="Times New Roman,serif" font-size="14.00">1 (#8)</text>
</g>
<!-- 2329770317456 -->
<g id="node7" class="node">
<title>2329770317456</title>
<polygon fill="lightblue" stroke="none" points="91.75,-36 0,-36 0,0 91.75,0 91.75,-36"/>
<polygon fill="none" stroke="black" points="11,-7.12 11,-28.88 80.75,-28.88 80.75,-7.12 11,-7.12"/>
<text text-anchor="start" x="14" y="-12.57" font-family="Arial" font-size="14.00">factorial(0)</text>
<polygon fill="none" stroke="black" points="8,-4.12 8,-31.88 83.75,-31.88 83.75,-4.12 8,-4.12"/>
</g>
<!-- 2329770275920&#45;&gt;2329770317456 -->
<g id="edge6" class="edge">
<title>2329770275920&#45;&gt;2329770317456</title>
<path fill="none" stroke="red" stroke-dasharray="5,2" d="M32.91,-88.59C29.44,-83.11 26.16,-76.81 24.38,-70.5 22.38,-63.44 22.38,-61.06 24.38,-54 25.18,-51.14 26.3,-48.28 27.6,-45.5"/>
<polygon fill="red" stroke="red" points="32.32,-36.98 31.41,-47.91 30.48,-40.29 27.47,-45.73 27.47,-45.73 27.47,-45.73 30.48,-40.29 23.54,-43.55 32.32,-36.98"/>
<text text-anchor="middle" x="35.62" y="-57.2" font-family="Times New Roman,serif" font-size="14.00">(#6)</text>
</g>
<!-- 2329770275920&#45;&gt;2329770317456 -->
<g id="edge13" class="edge">
<title>2329770275920&#45;&gt;2329770317456:c</title>
<path fill="none" stroke="green" stroke-dasharray="5,2" d="M46.75,-77.37C46.8,-75.05 46.84,-72.73 46.88,-70.5 46.98,-63.17 46.98,-61.33 46.88,-54 46.79,-48.04 46.62,-41.52 46.45,-35.73"/>
<polygon fill="green" stroke="green" points="43.25,-77.17 46.49,-87.25 50.25,-77.35 43.25,-77.17"/>
<text text-anchor="middle" x="63.45" y="-57.2" font-family="Times New Roman,serif" font-size="14.00">1 (#7)</text>
</g>
<!-- 99999999 -->
<g id="node8" class="node">
<title>99999999</title>
<path fill="lightblue" stroke="black" d="M30.75,-620C30.75,-620 61,-620 61,-620 67,-620 73,-626 73,-632 73,-632 73,-644 73,-644 73,-650 67,-656 61,-656 61,-656 30.75,-656 30.75,-656 24.75,-656 18.75,-650 18.75,-644 18.75,-644 18.75,-632 18.75,-632 18.75,-626 24.75,-620 30.75,-620"/>
<text text-anchor="middle" x="45.88" y="-632.58" font-family="Arial" font-size="14.00">Result</text>
</g>
<!-- 99999999&#45;&gt;2329768896944 -->
<g id="edge8" class="edge">
<title>99999999&#45;&gt;2329768896944:c</title>
<path fill="none" stroke="Green" stroke-dasharray="5,2" d="M45.88,-608.46C45.88,-594.7 45.88,-578.65 45.88,-566.86"/>
<polygon fill="Green" stroke="Green" points="42.38,-608.3 45.88,-618.3 49.38,-608.3 42.38,-608.3"/>
<text text-anchor="middle" x="72.5" y="-588.2" font-family="Times New Roman,serif" font-size="14.00">720 (#13)</text>
</g>
</g>
</svg>
