<?xml version="1.0" encoding="UTF-8" standalone="no"?>
<!DOCTYPE svg PUBLIC "-//W3C//DTD SVG 1.1//EN"
 "http://www.w3.org/Graphics/SVG/1.1/DTD/svg11.dtd">
<!-- Generated by graphviz version 12.1.0 (20240811.2233)
 -->
<!-- Title: rc&#45;graph Pages: 1 -->
<svg width="608pt" height="221pt"
 viewBox="0.00 0.00 608.00 221.00" xmlns="http://www.w3.org/2000/svg" xmlns:xlink="http://www.w3.org/1999/xlink">
<g id="graph0" class="graph" transform="scale(1 1) rotate(0) translate(4 217)">
<title>rc&#45;graph</title>
<polygon fill="white" stroke="none" points="-4,4 -4,-217 604,-217 604,4 -4,4"/>
<!-- 1627546921392 -->
<g id="node1" class="node">
<title>1627546921392</title>
<polygon fill="lightblue" stroke="none" points="358,-213 231,-213 231,-177 358,-177 358,-213"/>
<polygon fill="none" stroke="black" points="242,-184.12 242,-205.88 347,-205.88 347,-184.12 242,-184.12"/>
<text text-anchor="start" x="245" y="-189.57" font-family="Arial" font-size="14.00">hanoi(3, A, C, B)</text>
<polygon fill="none" stroke="black" points="239,-181.12 239,-208.88 350,-208.88 350,-181.12 239,-181.12"/>
</g>
<!-- 1627548123472 -->
<g id="node2" class="node">
<title>1627548123472</title>
<polygon fill="lightblue" stroke="none" points="277,-124.5 150,-124.5 150,-88.5 277,-88.5 277,-124.5"/>
<polygon fill="none" stroke="black" points="161,-95.62 161,-117.38 266,-117.38 266,-95.62 161,-95.62"/>
<text text-anchor="start" x="164" y="-101.08" font-family="Arial" font-size="14.00">hanoi(2, A, B, C)</text>
<polygon fill="none" stroke="black" points="158,-92.62 158,-120.38 269,-120.38 269,-92.62 158,-92.62"/>
</g>
<!-- 1627546921392&#45;&gt;1627548123472 -->
<g id="edge1" class="edge">
<title>1627546921392&#45;&gt;1627548123472</title>
<path fill="none" stroke="red" stroke-dasharray="5,2" d="M278.88,-177.32C266.97,-164.6 250.37,-146.87 236.87,-132.46"/>
<polygon fill="red" stroke="red" points="230.18,-125.31 240.3,-129.53 232.76,-128.07 237.01,-132.61 237.01,-132.61 237.01,-132.61 232.76,-128.07 233.73,-135.69 230.18,-125.31"/>
<text text-anchor="middle" x="272.51" y="-145.7" font-family="Times New Roman,serif" font-size="14.00">(#1)</text>
</g>
<!-- 1627548160592 -->
<g id="node5" class="node">
<title>1627548160592</title>
<polygon fill="lightblue" stroke="none" points="440,-124.5 313,-124.5 313,-88.5 440,-88.5 440,-124.5"/>
<polygon fill="none" stroke="black" points="324,-95.62 324,-117.38 429,-117.38 429,-95.62 324,-95.62"/>
<text text-anchor="start" x="327" y="-101.08" font-family="Arial" font-size="14.00">hanoi(2, B, C, A)</text>
<polygon fill="none" stroke="black" points="321,-92.62 321,-120.38 432,-120.38 432,-92.62 321,-92.62"/>
</g>
<!-- 1627546921392&#45;&gt;1627548160592 -->
<g id="edge2" class="edge">
<title>1627546921392&#45;&gt;1627548160592</title>
<path fill="none" stroke="red" stroke-dasharray="5,2" d="M310.31,-177.32C322.37,-164.6 339.18,-146.87 352.84,-132.46"/>
<polygon fill="red" stroke="red" points="359.62,-125.31 356.01,-135.66 357.02,-128.05 352.74,-132.56 352.74,-132.56 352.74,-132.56 357.02,-128.05 349.47,-129.47 359.62,-125.31"/>
<text text-anchor="middle" x="354.09" y="-145.7" font-family="Times New Roman,serif" font-size="14.00">(#7)</text>
</g>
<!-- 1627548130000 -->
<g id="node3" class="node">
<title>1627548130000</title>
<polygon fill="lightblue" stroke="none" points="127,-36 0,-36 0,0 127,0 127,-36"/>
<polygon fill="none" stroke="black" points="11,-7.12 11,-28.88 116,-28.88 116,-7.12 11,-7.12"/>
<text text-anchor="start" x="14" y="-12.57" font-family="Arial" font-size="14.00">hanoi(1, A, C, B)</text>
<polygon fill="none" stroke="black" points="8,-4.12 8,-31.88 119,-31.88 119,-4.12 8,-4.12"/>
</g>
<!-- 1627548123472&#45;&gt;1627548130000 -->
<g id="edge4" class="edge">
<title>1627548123472&#45;&gt;1627548130000</title>
<path fill="none" stroke="red" stroke-dasharray="5,2" d="M184.22,-88.62C160.86,-75.15 127.93,-56.16 102.36,-41.41"/>
<polygon fill="red" stroke="red" points="94.02,-36.6 104.93,-37.69 97.29,-38.49 102.68,-41.59 102.68,-41.59 102.68,-41.59 97.29,-38.49 100.43,-45.49 94.02,-36.6"/>
<text text-anchor="middle" x="163.19" y="-57.2" font-family="Times New Roman,serif" font-size="14.00">(#2)</text>
</g>
<!-- 1627548137072 -->
<g id="node4" class="node">
<title>1627548137072</title>
<polygon fill="lightblue" stroke="none" points="290,-36 163,-36 163,0 290,0 290,-36"/>
<polygon fill="none" stroke="black" points="174,-7.12 174,-28.88 279,-28.88 279,-7.12 174,-7.12"/>
<text text-anchor="start" x="177" y="-12.57" font-family="Arial" font-size="14.00">hanoi(1, C, B, A)</text>
<polygon fill="none" stroke="black" points="171,-4.12 171,-31.88 282,-31.88 282,-4.12 171,-4.12"/>
</g>
<!-- 1627548123472&#45;&gt;1627548137072 -->
<g id="edge5" class="edge">
<title>1627548123472&#45;&gt;1627548137072</title>
<path fill="none" stroke="red" stroke-dasharray="5,2" d="M216.01,-88.82C217.79,-76.93 220.24,-60.67 222.32,-46.83"/>
<polygon fill="red" stroke="red" points="223.78,-37.13 226.74,-47.68 223.21,-40.87 222.29,-47.02 222.29,-47.02 222.29,-47.02 223.21,-40.87 217.84,-46.35 223.78,-37.13"/>
<text text-anchor="middle" x="232.41" y="-57.2" font-family="Times New Roman,serif" font-size="14.00">(#4)</text>
</g>
<!-- 1627548123472&#45;&gt;1627548160592 -->
<g id="edge3" class="edge">
<title>1627548123472&#45;&gt;1627548160592</title>
<path fill="none" stroke="darkblue" stroke-dasharray="5,2" d="M276.85,-106.5C285.24,-106.5 293.63,-106.5 302.02,-106.5"/>
<polygon fill="darkblue" stroke="darkblue" points="311.83,-106.5 301.83,-111 308.05,-106.5 301.83,-106.5 301.83,-106.5 301.83,-106.5 308.05,-106.5 301.83,-102 311.83,-106.5"/>
</g>
<!-- 1627548130000&#45;&gt;1627548137072 -->
<g id="edge6" class="edge">
<title>1627548130000&#45;&gt;1627548137072</title>
<path fill="none" stroke="darkblue" stroke-dasharray="5,2" d="M126.85,-18C135.24,-18 143.63,-18 152.02,-18"/>
<polygon fill="darkblue" stroke="darkblue" points="161.83,-18 151.83,-22.5 158.05,-18 151.83,-18 151.83,-18 151.83,-18 158.05,-18 151.83,-13.5 161.83,-18"/>
</g>
<!-- 1627548167120 -->
<g id="node6" class="node">
<title>1627548167120</title>
<polygon fill="lightblue" stroke="none" points="437,-36 310,-36 310,0 437,0 437,-36"/>
<polygon fill="none" stroke="black" points="321,-7.12 321,-28.88 426,-28.88 426,-7.12 321,-7.12"/>
<text text-anchor="start" x="324" y="-12.57" font-family="Arial" font-size="14.00">hanoi(1, B, A, C)</text>
<polygon fill="none" stroke="black" points="318,-4.12 318,-31.88 429,-31.88 429,-4.12 318,-4.12"/>
</g>
<!-- 1627548160592&#45;&gt;1627548167120 -->
<g id="edge7" class="edge">
<title>1627548160592&#45;&gt;1627548167120</title>
<path fill="none" stroke="red" stroke-dasharray="5,2" d="M375.92,-88.82C375.51,-76.93 374.95,-60.67 374.47,-46.83"/>
<polygon fill="red" stroke="red" points="374.13,-37.14 378.97,-46.98 374.26,-40.92 374.48,-47.13 374.48,-47.13 374.48,-47.13 374.26,-40.92 369.98,-47.29 374.13,-37.14"/>
<text text-anchor="middle" x="386.52" y="-57.2" font-family="Times New Roman,serif" font-size="14.00">(#8)</text>
</g>
<!-- 1627548190640 -->
<g id="node7" class="node">
<title>1627548190640</title>
<polygon fill="lightblue" stroke="none" points="600,-36 473,-36 473,0 600,0 600,-36"/>
<polygon fill="none" stroke="black" points="484,-7.12 484,-28.88 589,-28.88 589,-7.12 484,-7.12"/>
<text text-anchor="start" x="487" y="-12.57" font-family="Arial" font-size="14.00">hanoi(1, A, C, B)</text>
<polygon fill="none" stroke="black" points="481,-4.12 481,-31.88 592,-31.88 592,-4.12 481,-4.12"/>
</g>
<!-- 1627548160592&#45;&gt;1627548190640 -->
<g id="edge8" class="edge">
<title>1627548160592&#45;&gt;1627548190640</title>
<path fill="none" stroke="red" stroke-dasharray="5,2" d="M407.73,-88.62C432.76,-75.09 468.08,-55.99 495.41,-41.22"/>
<polygon fill="red" stroke="red" points="504,-36.57 497.35,-45.28 500.68,-38.37 495.21,-41.32 495.21,-41.32 495.21,-41.32 500.68,-38.37 493.07,-37.37 504,-36.57"/>
<text text-anchor="middle" x="485.46" y="-57.2" font-family="Times New Roman,serif" font-size="14.00">(#10)</text>
</g>
<!-- 1627548167120&#45;&gt;1627548190640 -->
<g id="edge9" class="edge">
<title>1627548167120&#45;&gt;1627548190640</title>
<path fill="none" stroke="darkblue" stroke-dasharray="5,2" d="M436.85,-18C445.24,-18 453.63,-18 462.02,-18"/>
<polygon fill="darkblue" stroke="darkblue" points="471.83,-18 461.83,-22.5 468.05,-18 461.83,-18 461.83,-18 461.83,-18 468.05,-18 461.83,-13.5 471.83,-18"/>
</g>
</g>
</svg>
