<?xml version="1.0" encoding="UTF-8" standalone="no"?>
<!DOCTYPE svg PUBLIC "-//W3C//DTD SVG 1.1//EN"
 "http://www.w3.org/Graphics/SVG/1.1/DTD/svg11.dtd">
<!-- Generated by graphviz version 12.1.0 (20240811.2233)
 -->
<!-- Title: rc&#45;graph Pages: 1 -->
<svg width="458pt" height="399pt"
 viewBox="0.00 0.00 458.46 399.00" xmlns="http://www.w3.org/2000/svg" xmlns:xlink="http://www.w3.org/1999/xlink">
<g id="graph0" class="graph" transform="scale(1 1) rotate(0) translate(4 395)">
<title>rc&#45;graph</title>
<polygon fill="white" stroke="none" points="-4,4 -4,-395 454.46,-395 454.46,4 -4,4"/>
<!-- 2876049074336 -->
<g id="node1" class="node">
<title>2876049074336</title>
<polygon fill="lightblue" stroke="none" points="282,-301.5 209,-301.5 209,-265.5 282,-265.5 282,-301.5"/>
<polygon fill="none" stroke="black" points="220,-272.62 220,-294.38 271,-294.38 271,-272.62 220,-272.62"/>
<text text-anchor="start" x="223" y="-278.07" font-family="Arial" font-size="14.00">virfib(4)</text>
<polygon fill="none" stroke="black" points="217,-269.62 217,-297.38 274,-297.38 274,-269.62 217,-269.62"/>
</g>
<!-- 2876050424688 -->
<g id="node2" class="node">
<title>2876050424688</title>
<polygon fill="lightblue" stroke="none" points="208,-213 135,-213 135,-177 208,-177 208,-213"/>
<polygon fill="none" stroke="black" points="146,-184.12 146,-205.88 197,-205.88 197,-184.12 146,-184.12"/>
<text text-anchor="start" x="149" y="-189.57" font-family="Arial" font-size="14.00">virfib(3)</text>
<polygon fill="none" stroke="black" points="143,-181.12 143,-208.88 200,-208.88 200,-181.12 143,-181.12"/>
</g>
<!-- 2876049074336&#45;&gt;2876050424688 -->
<g id="edge1" class="edge">
<title>2876049074336&#45;&gt;2876050424688</title>
<path fill="none" stroke="red" stroke-dasharray="5,2" d="M209.37,-274.82C194.53,-269.69 178.79,-261.26 170,-247.5 165.55,-240.53 164.51,-231.88 165,-223.67"/>
<polygon fill="red" stroke="red" points="166.34,-213.79 169.45,-224.3 165.83,-217.54 164.99,-223.7 164.99,-223.7 164.99,-223.7 165.83,-217.54 160.53,-223.09 166.34,-213.79"/>
<text text-anchor="middle" x="181.25" y="-234.2" font-family="Times New Roman,serif" font-size="14.00">(#1)</text>
</g>
<!-- 2876049074336&#45;&gt;2876050424688 -->
<g id="edge13" class="edge">
<title>2876049074336&#45;&gt;2876050424688:c</title>
<path fill="none" stroke="green" stroke-dasharray="5,2" d="M224.04,-257.41C211.81,-243.12 196.81,-225.59 185.98,-212.92"/>
<polygon fill="green" stroke="green" points="221.09,-259.35 230.25,-264.67 226.41,-254.8 221.09,-259.35"/>
<text text-anchor="middle" x="235" y="-234.2" font-family="Times New Roman,serif" font-size="14.00">2 (#10)</text>
</g>
<!-- 2876050492944 -->
<g id="node7" class="node">
<title>2876050492944</title>
<polygon fill="lightblue" stroke="none" points="362,-213 289,-213 289,-177 362,-177 362,-213"/>
<polygon fill="none" stroke="black" points="300,-184.12 300,-205.88 351,-205.88 351,-184.12 300,-184.12"/>
<text text-anchor="start" x="303" y="-189.57" font-family="Arial" font-size="14.00">virfib(2)</text>
<polygon fill="none" stroke="black" points="297,-181.12 297,-208.88 354,-208.88 354,-181.12 297,-181.12"/>
</g>
<!-- 2876049074336&#45;&gt;2876050492944 -->
<g id="edge2" class="edge">
<title>2876049074336&#45;&gt;2876050492944</title>
<path fill="none" stroke="red" stroke-dasharray="5,2" d="M254.13,-265.64C260.05,-255.01 268.57,-241.39 278.25,-231 281.89,-227.1 286,-223.33 290.26,-219.8"/>
<polygon fill="red" stroke="red" points="298.11,-213.69 292.98,-223.39 295.13,-216.01 290.22,-219.83 290.22,-219.83 290.22,-219.83 295.13,-216.01 287.46,-216.28 298.11,-213.69"/>
<text text-anchor="middle" x="292.88" y="-234.2" font-family="Times New Roman,serif" font-size="14.00">(#11)</text>
</g>
<!-- 2876049074336&#45;&gt;2876050492944 -->
<g id="edge14" class="edge">
<title>2876049074336&#45;&gt;2876050492944:c</title>
<path fill="none" stroke="green" stroke-dasharray="5,2" d="M291.42,-261.75C297.38,-257.65 302.97,-252.91 307.5,-247.5 315.76,-237.62 320.33,-223.7 322.79,-212.83"/>
<polygon fill="green" stroke="green" points="289.81,-258.63 283.15,-266.87 293.5,-264.58 289.81,-258.63"/>
<text text-anchor="middle" x="336.46" y="-234.2" font-family="Times New Roman,serif" font-size="14.00">1 (#16)</text>
</g>
<!-- 2876050431216 -->
<g id="node3" class="node">
<title>2876050431216</title>
<polygon fill="lightblue" stroke="none" points="128,-124.5 55,-124.5 55,-88.5 128,-88.5 128,-124.5"/>
<polygon fill="none" stroke="black" points="66,-95.62 66,-117.38 117,-117.38 117,-95.62 66,-95.62"/>
<text text-anchor="start" x="69" y="-101.08" font-family="Arial" font-size="14.00">virfib(2)</text>
<polygon fill="none" stroke="black" points="63,-92.62 63,-120.38 120,-120.38 120,-92.62 63,-92.62"/>
</g>
<!-- 2876050424688&#45;&gt;2876050431216 -->
<g id="edge4" class="edge">
<title>2876050424688&#45;&gt;2876050431216</title>
<path fill="none" stroke="red" stroke-dasharray="5,2" d="M135.05,-191.56C112.61,-187.95 85.45,-179.33 71,-159 65.63,-151.44 67.2,-142.29 71.25,-133.8"/>
<polygon fill="red" stroke="red" points="76.26,-125.33 75.05,-136.23 74.34,-128.58 71.17,-133.94 71.17,-133.94 71.17,-133.94 74.34,-128.58 67.3,-131.65 76.26,-125.33"/>
<text text-anchor="middle" x="82.25" y="-145.7" font-family="Times New Roman,serif" font-size="14.00">(#2)</text>
</g>
<!-- 2876050424688&#45;&gt;2876050431216 -->
<g id="edge16" class="edge">
<title>2876050424688&#45;&gt;2876050431216:c</title>
<path fill="none" stroke="green" stroke-dasharray="5,2" d="M143.04,-169.47C139.4,-166.05 135.8,-162.5 132.5,-159 122.15,-148.02 111.58,-134.67 103.76,-124.32"/>
<polygon fill="green" stroke="green" points="140.6,-171.99 150.34,-176.15 145.32,-166.82 140.6,-171.99"/>
<text text-anchor="middle" x="149" y="-145.7" font-family="Times New Roman,serif" font-size="14.00">1 (#7)</text>
</g>
<!-- 2876050485808 -->
<g id="node6" class="node">
<title>2876050485808</title>
<polygon fill="lightblue" stroke="none" points="237,-124.5 164,-124.5 164,-88.5 237,-88.5 237,-124.5"/>
<polygon fill="none" stroke="black" points="175,-95.62 175,-117.38 226,-117.38 226,-95.62 175,-95.62"/>
<text text-anchor="start" x="178" y="-101.08" font-family="Arial" font-size="14.00">virfib(1)</text>
<polygon fill="none" stroke="black" points="172,-92.62 172,-120.38 229,-120.38 229,-92.62 172,-92.62"/>
</g>
<!-- 2876050424688&#45;&gt;2876050485808 -->
<g id="edge5" class="edge">
<title>2876050424688&#45;&gt;2876050485808</title>
<path fill="none" stroke="red" stroke-dasharray="5,2" d="M169.38,-177.27C168.71,-166.95 168.98,-153.6 173,-142.5 174.15,-139.33 175.7,-136.23 177.49,-133.26"/>
<polygon fill="red" stroke="red" points="183.09,-125.31 181.01,-136.08 180.91,-128.4 177.33,-133.48 177.33,-133.48 177.33,-133.48 180.91,-128.4 173.65,-130.89 183.09,-125.31"/>
<text text-anchor="middle" x="184.25" y="-145.7" font-family="Times New Roman,serif" font-size="14.00">(#8)</text>
</g>
<!-- 2876050424688&#45;&gt;2876050485808 -->
<g id="edge17" class="edge">
<title>2876050424688&#45;&gt;2876050485808:c</title>
<path fill="none" stroke="green" stroke-dasharray="5,2" d="M191.59,-167.55C193.11,-164.76 194.45,-161.89 195.5,-159 199.55,-147.86 200.76,-134.51 200.97,-124.2"/>
<polygon fill="green" stroke="green" points="188.72,-165.54 186.38,-175.87 194.65,-169.25 188.72,-165.54"/>
<text text-anchor="middle" x="216" y="-145.7" font-family="Times New Roman,serif" font-size="14.00">1 (#9)</text>
</g>
<!-- 2876050424688&#45;&gt;2876050492944 -->
<g id="edge3" class="edge">
<title>2876050424688&#45;&gt;2876050492944</title>
<path fill="none" stroke="darkblue" stroke-dasharray="5,2" d="M207.89,-195C231.29,-195 254.69,-195 278.09,-195"/>
<polygon fill="darkblue" stroke="darkblue" points="287.99,-195 277.99,-199.5 284.21,-195 277.99,-195 277.99,-195 277.99,-195 284.21,-195 277.99,-190.5 287.99,-195"/>
</g>
<!-- 2876050438288 -->
<g id="node4" class="node">
<title>2876050438288</title>
<polygon fill="lightblue" stroke="none" points="73,-36 0,-36 0,0 73,0 73,-36"/>
<polygon fill="none" stroke="black" points="11,-7.12 11,-28.88 62,-28.88 62,-7.12 11,-7.12"/>
<text text-anchor="start" x="14" y="-12.57" font-family="Arial" font-size="14.00">virfib(1)</text>
<polygon fill="none" stroke="black" points="8,-4.12 8,-31.88 65,-31.88 65,-4.12 8,-4.12"/>
</g>
<!-- 2876050431216&#45;&gt;2876050438288 -->
<g id="edge7" class="edge">
<title>2876050431216&#45;&gt;2876050438288</title>
<path fill="none" stroke="red" stroke-dasharray="5,2" d="M55.25,-96.9C41.44,-91.66 27.1,-83.4 19,-70.5 14.22,-62.88 15.42,-53.8 18.81,-45.4"/>
<polygon fill="red" stroke="red" points="23.23,-36.72 22.7,-47.68 21.51,-40.09 18.69,-45.64 18.69,-45.64 18.69,-45.64 21.51,-40.09 14.68,-43.59 23.23,-36.72"/>
<text text-anchor="middle" x="30.25" y="-57.2" font-family="Times New Roman,serif" font-size="14.00">(#3)</text>
</g>
<!-- 2876050431216&#45;&gt;2876050438288 -->
<g id="edge18" class="edge">
<title>2876050431216&#45;&gt;2876050438288:c</title>
<path fill="none" stroke="green" stroke-dasharray="5,2" d="M74.77,-79.19C65.83,-65.13 55.09,-48.23 47.26,-35.92"/>
<polygon fill="green" stroke="green" points="71.76,-80.98 80.08,-87.54 77.67,-77.23 71.76,-80.98"/>
<text text-anchor="middle" x="85.43" y="-57.2" font-family="Times New Roman,serif" font-size="14.00">1 (#4)</text>
</g>
<!-- 2876050478736 -->
<g id="node5" class="node">
<title>2876050478736</title>
<polygon fill="lightblue" stroke="none" points="182,-36 109,-36 109,0 182,0 182,-36"/>
<polygon fill="none" stroke="black" points="120,-7.12 120,-28.88 171,-28.88 171,-7.12 120,-7.12"/>
<text text-anchor="start" x="123" y="-12.57" font-family="Arial" font-size="14.00">virfib(0)</text>
<polygon fill="none" stroke="black" points="117,-4.12 117,-31.88 174,-31.88 174,-4.12 117,-4.12"/>
</g>
<!-- 2876050431216&#45;&gt;2876050478736 -->
<g id="edge8" class="edge">
<title>2876050431216&#45;&gt;2876050478736</title>
<path fill="none" stroke="red" stroke-dasharray="5,2" d="M100.69,-88.57C106.33,-78.41 113.82,-65.31 121,-54 122.85,-51.09 124.83,-48.08 126.84,-45.1"/>
<polygon fill="red" stroke="red" points="132.53,-36.88 130.54,-47.67 130.38,-39.99 126.84,-45.11 126.84,-45.11 126.84,-45.11 130.38,-39.99 123.14,-42.55 132.53,-36.88"/>
<text text-anchor="middle" x="132.25" y="-57.2" font-family="Times New Roman,serif" font-size="14.00">(#5)</text>
</g>
<!-- 2876050431216&#45;&gt;2876050478736 -->
<g id="edge19" class="edge">
<title>2876050431216&#45;&gt;2876050478736:c</title>
<path fill="none" stroke="green" stroke-dasharray="5,2" d="M135.2,-81.28C138.44,-78.04 141.3,-74.45 143.5,-70.5 149.34,-60.03 149.61,-46.41 148.55,-35.81"/>
<polygon fill="green" stroke="green" points="133.03,-78.53 127.65,-87.66 137.55,-83.88 133.03,-78.53"/>
<text text-anchor="middle" x="164.93" y="-57.2" font-family="Times New Roman,serif" font-size="14.00">0 (#6)</text>
</g>
<!-- 2876050431216&#45;&gt;2876050485808 -->
<g id="edge6" class="edge">
<title>2876050431216&#45;&gt;2876050485808</title>
<path fill="none" stroke="darkblue" stroke-dasharray="5,2" d="M127.69,-106.5C136.13,-106.5 144.57,-106.5 153,-106.5"/>
<polygon fill="darkblue" stroke="darkblue" points="162.88,-106.5 152.88,-111 159.1,-106.5 152.88,-106.5 152.88,-106.5 152.88,-106.5 159.1,-106.5 152.88,-102 162.88,-106.5"/>
</g>
<!-- 2876050438288&#45;&gt;2876050478736 -->
<g id="edge9" class="edge">
<title>2876050438288&#45;&gt;2876050478736</title>
<path fill="none" stroke="darkblue" stroke-dasharray="5,2" d="M72.69,-18C81.13,-18 89.57,-18 98,-18"/>
<polygon fill="darkblue" stroke="darkblue" points="107.88,-18 97.88,-22.5 104.1,-18 97.88,-18 97.88,-18 97.88,-18 104.1,-18 97.88,-13.5 107.88,-18"/>
</g>
<!-- 2876050499472 -->
<g id="node8" class="node">
<title>2876050499472</title>
<polygon fill="lightblue" stroke="none" points="333,-124.5 260,-124.5 260,-88.5 333,-88.5 333,-124.5"/>
<polygon fill="none" stroke="black" points="271,-95.62 271,-117.38 322,-117.38 322,-95.62 271,-95.62"/>
<text text-anchor="start" x="274" y="-101.08" font-family="Arial" font-size="14.00">virfib(1)</text>
<polygon fill="none" stroke="black" points="268,-92.62 268,-120.38 325,-120.38 325,-92.62 268,-92.62"/>
</g>
<!-- 2876050492944&#45;&gt;2876050499472 -->
<g id="edge10" class="edge">
<title>2876050492944&#45;&gt;2876050499472</title>
<path fill="none" stroke="red" stroke-dasharray="5,2" d="M290.79,-177.16C284.14,-172.27 278.07,-166.24 274.25,-159 269.98,-150.92 271.83,-141.84 275.89,-133.58"/>
<polygon fill="red" stroke="red" points="281.04,-125.08 279.71,-135.97 279.08,-128.32 275.86,-133.64 275.86,-133.64 275.86,-133.64 279.08,-128.32 272.01,-131.3 281.04,-125.08"/>
<text text-anchor="middle" x="288.88" y="-145.7" font-family="Times New Roman,serif" font-size="14.00">(#12)</text>
</g>
<!-- 2876050492944&#45;&gt;2876050499472 -->
<g id="edge20" class="edge">
<title>2876050492944&#45;&gt;2876050499472:c</title>
<path fill="none" stroke="green" stroke-dasharray="5,2" d="M316.27,-166.45C311.64,-152.65 306.18,-136.37 302.17,-124.42"/>
<polygon fill="green" stroke="green" points="312.93,-167.52 319.43,-175.89 319.57,-165.29 312.93,-167.52"/>
<text text-anchor="middle" x="333.47" y="-145.7" font-family="Times New Roman,serif" font-size="14.00">1 (#13)</text>
</g>
<!-- 2876050539376 -->
<g id="node9" class="node">
<title>2876050539376</title>
<polygon fill="lightblue" stroke="none" points="442,-124.5 369,-124.5 369,-88.5 442,-88.5 442,-124.5"/>
<polygon fill="none" stroke="black" points="380,-95.62 380,-117.38 431,-117.38 431,-95.62 380,-95.62"/>
<text text-anchor="start" x="383" y="-101.08" font-family="Arial" font-size="14.00">virfib(0)</text>
<polygon fill="none" stroke="black" points="377,-92.62 377,-120.38 434,-120.38 434,-92.62 377,-92.62"/>
</g>
<!-- 2876050492944&#45;&gt;2876050539376 -->
<g id="edge11" class="edge">
<title>2876050492944&#45;&gt;2876050539376</title>
<path fill="none" stroke="red" stroke-dasharray="5,2" d="M340.92,-177.32C352.69,-164.6 369.09,-146.87 382.42,-132.46"/>
<polygon fill="red" stroke="red" points="389.02,-125.32 385.54,-135.71 386.45,-128.09 382.23,-132.66 382.23,-132.66 382.23,-132.66 386.45,-128.09 378.93,-129.6 389.02,-125.32"/>
<text text-anchor="middle" x="387.29" y="-145.7" font-family="Times New Roman,serif" font-size="14.00">(#14)</text>
</g>
<!-- 2876050492944&#45;&gt;2876050539376 -->
<g id="edge21" class="edge">
<title>2876050492944&#45;&gt;2876050539376:c</title>
<path fill="none" stroke="green" stroke-dasharray="5,2" d="M372.45,-183.71C385.34,-178.51 397.85,-170.7 405.5,-159 412.16,-148.82 411.74,-134.92 409.89,-124.13"/>
<polygon fill="green" stroke="green" points="371.35,-180.39 363.07,-187 373.67,-187 371.35,-180.39"/>
<text text-anchor="middle" x="430.59" y="-145.7" font-family="Times New Roman,serif" font-size="14.00">0 (#15)</text>
</g>
<!-- 2876050499472&#45;&gt;2876050539376 -->
<g id="edge12" class="edge">
<title>2876050499472&#45;&gt;2876050539376</title>
<path fill="none" stroke="darkblue" stroke-dasharray="5,2" d="M332.69,-106.5C341.13,-106.5 349.57,-106.5 358,-106.5"/>
<polygon fill="darkblue" stroke="darkblue" points="367.88,-106.5 357.88,-111 364.1,-106.5 357.88,-106.5 357.88,-106.5 357.88,-106.5 364.1,-106.5 357.88,-102 367.88,-106.5"/>
</g>
<!-- 99999999 -->
<g id="node10" class="node">
<title>99999999</title>
<path fill="lightblue" stroke="black" d="M230.38,-354.5C230.38,-354.5 260.62,-354.5 260.62,-354.5 266.62,-354.5 272.62,-360.5 272.62,-366.5 272.62,-366.5 272.62,-378.5 272.62,-378.5 272.62,-384.5 266.62,-390.5 260.62,-390.5 260.62,-390.5 230.38,-390.5 230.38,-390.5 224.38,-390.5 218.38,-384.5 218.38,-378.5 218.38,-378.5 218.38,-366.5 218.38,-366.5 218.38,-360.5 224.38,-354.5 230.38,-354.5"/>
<text text-anchor="middle" x="245.5" y="-367.07" font-family="Arial" font-size="14.00">Result</text>
</g>
<!-- 99999999&#45;&gt;2876049074336 -->
<g id="edge15" class="edge">
<title>99999999&#45;&gt;2876049074336:c</title>
<path fill="none" stroke="Green" stroke-dasharray="5,2" d="M245.5,-342.96C245.5,-329.2 245.5,-313.15 245.5,-301.36"/>
<polygon fill="Green" stroke="Green" points="242,-342.8 245.5,-352.8 249,-342.8 242,-342.8"/>
<text text-anchor="middle" x="265.38" y="-322.7" font-family="Times New Roman,serif" font-size="14.00">3 (#17)</text>
</g>
</g>
</svg>
