<?xml version="1.0" encoding="UTF-8" standalone="no"?>
<!DOCTYPE svg PUBLIC "-//W3C//DTD SVG 1.1//EN"
 "http://www.w3.org/Graphics/SVG/1.1/DTD/svg11.dtd">
<!-- Generated by graphviz version 12.1.0 (20240811.2233)
 -->
<!-- Title: rc&#45;graph Pages: 1 -->
<svg width="207pt" height="576pt"
 viewBox="0.00 0.00 207.00 576.00" xmlns="http://www.w3.org/2000/svg" xmlns:xlink="http://www.w3.org/1999/xlink">
<g id="graph0" class="graph" transform="scale(1 1) rotate(0) translate(4 572)">
<title>rc&#45;graph</title>
<polygon fill="white" stroke="none" points="-4,4 -4,-572 203,-572 203,4 -4,4"/>
<!-- 2395704388016 -->
<g id="node1" class="node">
<title>2395704388016</title>
<polygon fill="lightblue" stroke="none" points="199,-478.5 0,-478.5 0,-442.5 199,-442.5 199,-478.5"/>
<polygon fill="none" stroke="black" points="11,-449.62 11,-471.38 188,-471.38 188,-449.62 11,-449.62"/>
<text text-anchor="start" x="14" y="-455.07" font-family="Arial" font-size="14.00">sum_of_natural_numbers(6)</text>
<polygon fill="none" stroke="black" points="8,-446.62 8,-474.38 191,-474.38 191,-446.62 8,-446.62"/>
</g>
<!-- 2395705721168 -->
<g id="node2" class="node">
<title>2395705721168</title>
<polygon fill="lightblue" stroke="none" points="199,-390 0,-390 0,-354 199,-354 199,-390"/>
<polygon fill="none" stroke="black" points="11,-361.12 11,-382.88 188,-382.88 188,-361.12 11,-361.12"/>
<text text-anchor="start" x="14" y="-366.57" font-family="Arial" font-size="14.00">sum_of_natural_numbers(5)</text>
<polygon fill="none" stroke="black" points="8,-358.12 8,-385.88 191,-385.88 191,-358.12 8,-358.12"/>
</g>
<!-- 2395704388016&#45;&gt;2395705721168 -->
<g id="edge1" class="edge">
<title>2395704388016&#45;&gt;2395705721168</title>
<path fill="none" stroke="red" stroke-dasharray="5,2" d="M86.53,-442.59C83.06,-437.11 79.78,-430.81 78,-424.5 76.01,-417.44 76.01,-415.06 78,-408 78.81,-405.14 79.92,-402.28 81.22,-399.5"/>
<polygon fill="red" stroke="red" points="85.94,-390.98 85.04,-401.91 84.11,-394.29 81.1,-399.73 81.1,-399.73 81.1,-399.73 84.11,-394.29 77.16,-397.55 85.94,-390.98"/>
<text text-anchor="middle" x="89.25" y="-411.2" font-family="Times New Roman,serif" font-size="14.00">(#1)</text>
</g>
<!-- 2395704388016&#45;&gt;2395705721168 -->
<g id="edge6" class="edge">
<title>2395704388016&#45;&gt;2395705721168:c</title>
<path fill="none" stroke="green" stroke-dasharray="5,2" d="M100.37,-431.37C100.42,-429.05 100.47,-426.73 100.5,-424.5 100.6,-417.17 100.6,-415.33 100.5,-408 100.41,-402.04 100.25,-395.52 100.08,-389.73"/>
<polygon fill="green" stroke="green" points="96.88,-431.17 100.11,-441.25 103.88,-431.35 96.88,-431.17"/>
<text text-anchor="middle" x="123.83" y="-411.2" font-family="Times New Roman,serif" font-size="14.00">15 (#10)</text>
</g>
<!-- 2395705727696 -->
<g id="node3" class="node">
<title>2395705727696</title>
<polygon fill="lightblue" stroke="none" points="199,-301.5 0,-301.5 0,-265.5 199,-265.5 199,-301.5"/>
<polygon fill="none" stroke="black" points="11,-272.62 11,-294.38 188,-294.38 188,-272.62 11,-272.62"/>
<text text-anchor="start" x="14" y="-278.07" font-family="Arial" font-size="14.00">sum_of_natural_numbers(4)</text>
<polygon fill="none" stroke="black" points="8,-269.62 8,-297.38 191,-297.38 191,-269.62 8,-269.62"/>
</g>
<!-- 2395705721168&#45;&gt;2395705727696 -->
<g id="edge2" class="edge">
<title>2395705721168&#45;&gt;2395705727696</title>
<path fill="none" stroke="red" stroke-dasharray="5,2" d="M86.53,-354.09C83.06,-348.61 79.78,-342.31 78,-336 76.01,-328.94 76.01,-326.56 78,-319.5 78.81,-316.64 79.92,-313.78 81.22,-311"/>
<polygon fill="red" stroke="red" points="85.94,-302.48 85.04,-313.41 84.11,-305.79 81.1,-311.23 81.1,-311.23 81.1,-311.23 84.11,-305.79 77.16,-309.05 85.94,-302.48"/>
<text text-anchor="middle" x="89.25" y="-322.7" font-family="Times New Roman,serif" font-size="14.00">(#2)</text>
</g>
<!-- 2395705721168&#45;&gt;2395705727696 -->
<g id="edge8" class="edge">
<title>2395705721168&#45;&gt;2395705727696:c</title>
<path fill="none" stroke="green" stroke-dasharray="5,2" d="M100.37,-342.87C100.42,-340.55 100.47,-338.23 100.5,-336 100.6,-328.67 100.6,-326.83 100.5,-319.5 100.41,-313.54 100.25,-307.02 100.08,-301.23"/>
<polygon fill="green" stroke="green" points="96.88,-342.67 100.11,-352.75 103.88,-342.85 96.88,-342.67"/>
<text text-anchor="middle" x="120.45" y="-322.7" font-family="Times New Roman,serif" font-size="14.00">10 (#9)</text>
</g>
<!-- 2395705734768 -->
<g id="node4" class="node">
<title>2395705734768</title>
<polygon fill="lightblue" stroke="none" points="199,-213 0,-213 0,-177 199,-177 199,-213"/>
<polygon fill="none" stroke="black" points="11,-184.12 11,-205.88 188,-205.88 188,-184.12 11,-184.12"/>
<text text-anchor="start" x="14" y="-189.57" font-family="Arial" font-size="14.00">sum_of_natural_numbers(3)</text>
<polygon fill="none" stroke="black" points="8,-181.12 8,-208.88 191,-208.88 191,-181.12 8,-181.12"/>
</g>
<!-- 2395705727696&#45;&gt;2395705734768 -->
<g id="edge3" class="edge">
<title>2395705727696&#45;&gt;2395705734768</title>
<path fill="none" stroke="red" stroke-dasharray="5,2" d="M86.53,-265.59C83.06,-260.11 79.78,-253.81 78,-247.5 76.01,-240.44 76.01,-238.06 78,-231 78.81,-228.14 79.92,-225.28 81.22,-222.5"/>
<polygon fill="red" stroke="red" points="85.94,-213.98 85.04,-224.91 84.11,-217.29 81.1,-222.73 81.1,-222.73 81.1,-222.73 84.11,-217.29 77.16,-220.55 85.94,-213.98"/>
<text text-anchor="middle" x="89.25" y="-234.2" font-family="Times New Roman,serif" font-size="14.00">(#3)</text>
</g>
<!-- 2395705727696&#45;&gt;2395705734768 -->
<g id="edge9" class="edge">
<title>2395705727696&#45;&gt;2395705734768:c</title>
<path fill="none" stroke="green" stroke-dasharray="5,2" d="M100.37,-254.37C100.42,-252.05 100.47,-249.73 100.5,-247.5 100.6,-240.17 100.6,-238.33 100.5,-231 100.41,-225.04 100.25,-218.52 100.08,-212.73"/>
<polygon fill="green" stroke="green" points="96.88,-254.17 100.11,-264.25 103.88,-254.35 96.88,-254.17"/>
<text text-anchor="middle" x="117.08" y="-234.2" font-family="Times New Roman,serif" font-size="14.00">6 (#8)</text>
</g>
<!-- 2395705791600 -->
<g id="node5" class="node">
<title>2395705791600</title>
<polygon fill="lightblue" stroke="none" points="199,-124.5 0,-124.5 0,-88.5 199,-88.5 199,-124.5"/>
<polygon fill="none" stroke="black" points="11,-95.62 11,-117.38 188,-117.38 188,-95.62 11,-95.62"/>
<text text-anchor="start" x="14" y="-101.08" font-family="Arial" font-size="14.00">sum_of_natural_numbers(2)</text>
<polygon fill="none" stroke="black" points="8,-92.62 8,-120.38 191,-120.38 191,-92.62 8,-92.62"/>
</g>
<!-- 2395705734768&#45;&gt;2395705791600 -->
<g id="edge4" class="edge">
<title>2395705734768&#45;&gt;2395705791600</title>
<path fill="none" stroke="red" stroke-dasharray="5,2" d="M86.53,-177.09C83.06,-171.61 79.78,-165.31 78,-159 76.01,-151.94 76.01,-149.56 78,-142.5 78.81,-139.64 79.92,-136.78 81.22,-134"/>
<polygon fill="red" stroke="red" points="85.94,-125.48 85.04,-136.41 84.11,-128.79 81.1,-134.23 81.1,-134.23 81.1,-134.23 84.11,-128.79 77.16,-132.05 85.94,-125.48"/>
<text text-anchor="middle" x="89.25" y="-145.7" font-family="Times New Roman,serif" font-size="14.00">(#4)</text>
</g>
<!-- 2395705734768&#45;&gt;2395705791600 -->
<g id="edge10" class="edge">
<title>2395705734768&#45;&gt;2395705791600:c</title>
<path fill="none" stroke="green" stroke-dasharray="5,2" d="M100.37,-165.87C100.42,-163.55 100.47,-161.23 100.5,-159 100.6,-151.67 100.6,-149.83 100.5,-142.5 100.41,-136.54 100.25,-130.02 100.08,-124.23"/>
<polygon fill="green" stroke="green" points="96.88,-165.67 100.11,-175.75 103.88,-165.85 96.88,-165.67"/>
<text text-anchor="middle" x="117.08" y="-145.7" font-family="Times New Roman,serif" font-size="14.00">3 (#7)</text>
</g>
<!-- 2395705799760 -->
<g id="node6" class="node">
<title>2395705799760</title>
<polygon fill="lightblue" stroke="none" points="199,-36 0,-36 0,0 199,0 199,-36"/>
<polygon fill="none" stroke="black" points="11,-7.12 11,-28.88 188,-28.88 188,-7.12 11,-7.12"/>
<text text-anchor="start" x="14" y="-12.57" font-family="Arial" font-size="14.00">sum_of_natural_numbers(1)</text>
<polygon fill="none" stroke="black" points="8,-4.12 8,-31.88 191,-31.88 191,-4.12 8,-4.12"/>
</g>
<!-- 2395705791600&#45;&gt;2395705799760 -->
<g id="edge5" class="edge">
<title>2395705791600&#45;&gt;2395705799760</title>
<path fill="none" stroke="red" stroke-dasharray="5,2" d="M86.53,-88.59C83.06,-83.11 79.78,-76.81 78,-70.5 76.01,-63.44 76.01,-61.06 78,-54 78.81,-51.14 79.92,-48.28 81.22,-45.5"/>
<polygon fill="red" stroke="red" points="85.94,-36.98 85.04,-47.91 84.11,-40.29 81.1,-45.73 81.1,-45.73 81.1,-45.73 84.11,-40.29 77.16,-43.55 85.94,-36.98"/>
<text text-anchor="middle" x="89.25" y="-57.2" font-family="Times New Roman,serif" font-size="14.00">(#5)</text>
</g>
<!-- 2395705791600&#45;&gt;2395705799760 -->
<g id="edge11" class="edge">
<title>2395705791600&#45;&gt;2395705799760:c</title>
<path fill="none" stroke="green" stroke-dasharray="5,2" d="M100.37,-77.37C100.42,-75.05 100.47,-72.73 100.5,-70.5 100.6,-63.17 100.6,-61.33 100.5,-54 100.41,-48.04 100.25,-41.52 100.08,-35.73"/>
<polygon fill="green" stroke="green" points="96.88,-77.17 100.11,-87.25 103.88,-77.35 96.88,-77.17"/>
<text text-anchor="middle" x="117.08" y="-57.2" font-family="Times New Roman,serif" font-size="14.00">1 (#6)</text>
</g>
<!-- 99999999 -->
<g id="node7" class="node">
<title>99999999</title>
<path fill="lightblue" stroke="black" d="M84.38,-531.5C84.38,-531.5 114.62,-531.5 114.62,-531.5 120.62,-531.5 126.62,-537.5 126.62,-543.5 126.62,-543.5 126.62,-555.5 126.62,-555.5 126.62,-561.5 120.62,-567.5 114.62,-567.5 114.62,-567.5 84.38,-567.5 84.38,-567.5 78.38,-567.5 72.38,-561.5 72.38,-555.5 72.38,-555.5 72.38,-543.5 72.38,-543.5 72.38,-537.5 78.38,-531.5 84.38,-531.5"/>
<text text-anchor="middle" x="99.5" y="-544.08" font-family="Arial" font-size="14.00">Result</text>
</g>
<!-- 99999999&#45;&gt;2395704388016 -->
<g id="edge7" class="edge">
<title>99999999&#45;&gt;2395704388016:c</title>
<path fill="none" stroke="Green" stroke-dasharray="5,2" d="M99.5,-519.96C99.5,-506.2 99.5,-490.15 99.5,-478.36"/>
<polygon fill="Green" stroke="Green" points="96,-519.8 99.5,-529.8 103,-519.8 96,-519.8"/>
<text text-anchor="middle" x="122.75" y="-499.7" font-family="Times New Roman,serif" font-size="14.00">21 (#11)</text>
</g>
</g>
</svg>
